<svg xmlns="http://www.w3.org/2000/svg" xmlns:xlink="http://www.w3.org/1999/xlink" width="180" zoomAndPan="magnify" viewBox="0 0 135 44.999999" height="60" preserveAspectRatio="xMidYMid meet" version="1.0"><defs><g/><clipPath id="e659f54eea"><path d="M 0 1 L 53.464844 1 L 53.464844 45 L 0 45 Z M 0 1 " clip-rule="nonzero"/></clipPath></defs><g clip-path="url(#e659f54eea)"><path fill="#ffffff" d="M 44.878906 37.695312 C 44.4375 37.253906 43.824219 36.980469 43.148438 36.980469 C 42.476562 36.980469 41.863281 37.253906 41.421875 37.695312 C 40.980469 38.136719 40.707031 38.746094 40.707031 39.421875 C 40.707031 40.097656 40.980469 40.707031 41.421875 41.152344 C 41.863281 41.59375 42.476562 41.867188 43.148438 41.867188 C 43.824219 41.867188 44.4375 41.59375 44.878906 41.152344 C 45.320312 40.707031 45.59375 40.097656 45.59375 39.421875 C 45.59375 38.746094 45.320312 38.136719 44.878906 37.695312 M 15.585938 15.253906 C 16.824219 11.597656 19.089844 8.417969 22.042969 6.066406 C 25.441406 3.355469 29.746094 1.738281 34.421875 1.738281 C 39.039062 1.738281 43.292969 3.320312 46.671875 5.96875 C 50.121094 8.675781 52.65625 12.496094 53.734375 16.890625 L 49.695312 17.867188 C 48.84375 14.398438 46.84375 11.382812 44.117188 9.242188 C 41.453125 7.15625 38.085938 5.90625 34.421875 5.90625 C 30.71875 5.90625 27.316406 7.183594 24.632812 9.324219 C 22.355469 11.136719 20.589844 13.570312 19.601562 16.363281 C 20.066406 16.578125 20.519531 16.816406 20.953125 17.082031 C 23.007812 18.324219 24.695312 20.117188 25.808594 22.25 L 22.128906 24.171875 C 21.363281 22.710938 20.210938 21.484375 18.804688 20.632812 C 17.457031 19.816406 15.863281 19.347656 14.148438 19.347656 C 11.664062 19.347656 9.414062 20.351562 7.785156 21.980469 C 6.15625 23.609375 5.152344 25.855469 5.152344 28.339844 C 5.152344 30.828125 6.15625 33.074219 7.785156 34.703125 C 9.414062 36.332031 11.664062 37.335938 14.148438 37.335938 L 37.984375 37.335938 C 38.265625 36.636719 38.6875 36.007812 39.210938 35.484375 C 40.21875 34.476562 41.613281 33.851562 43.148438 33.851562 C 44.6875 33.851562 46.082031 34.476562 47.089844 35.484375 C 48.097656 36.492188 48.722656 37.886719 48.722656 39.421875 C 48.722656 40.960938 48.097656 42.351562 47.089844 43.359375 C 46.082031 44.371094 44.6875 44.992188 43.148438 44.992188 C 41.613281 44.992188 40.21875 44.371094 39.210938 43.359375 C 38.6875 42.835938 38.265625 42.207031 37.984375 41.507812 L 14.148438 41.507812 C 10.511719 41.507812 7.21875 40.035156 4.835938 37.652344 C 2.457031 35.269531 0.980469 31.976562 0.980469 28.34375 C 0.980469 24.707031 2.457031 21.414062 4.835938 19.035156 C 7.21875 16.652344 10.511719 15.175781 14.148438 15.175781 C 14.632812 15.175781 15.113281 15.203125 15.585938 15.253906 Z M 15.585938 15.253906 " fill-opacity="1" fill-rule="nonzero"/></g><path fill="#ffffff" d="M -0.289062 -1.914062 L -0.28125 -1.917969 C -0.238281 -1.921875 -0.195312 -1.925781 -0.152344 -1.929688 L -0.144531 -1.929688 L -0.0820312 -1.933594 L -0.0742188 -1.933594 L -0.0117188 -1.941406 L 0.0585938 -1.941406 L 0.0625 -1.945312 L 0.132812 -1.945312 L 0.199219 -1.949219 L 0.203125 -1.949219 L 0.269531 -1.953125 L 0.554688 -1.953125 L 0.621094 -1.949219 L 0.625 -1.949219 L 0.691406 -1.945312 L 0.761719 -1.945312 L 0.765625 -1.941406 L 0.835938 -1.941406 L 0.898438 -1.933594 L 0.902344 -1.933594 L 0.96875 -1.929688 L 0.972656 -1.929688 C 1.019531 -1.925781 1.0625 -1.921875 1.105469 -1.917969 L 1.113281 -1.914062 C 2.355469 -1.78125 3.492188 -1.292969 4.417969 -0.554688 C 5.347656 0.1875 6.070312 1.183594 6.476562 2.324219 C 6.285156 2.414062 6.101562 2.511719 5.921875 2.617188 C 5.082031 3.125 4.390625 3.859375 3.933594 4.730469 L 5.441406 5.519531 C 5.753906 4.921875 6.226562 4.417969 6.800781 4.070312 C 7.351562 3.734375 8.003906 3.542969 8.707031 3.542969 C 9.722656 3.542969 10.644531 3.957031 11.308594 4.621094 C 11.976562 5.289062 12.386719 6.207031 12.386719 7.222656 C 12.386719 8.242188 11.976562 9.160156 11.308594 9.828125 C 10.644531 10.492188 9.722656 10.902344 8.707031 10.902344 L -7.882812 10.902344 C -8.898438 10.902344 -9.820312 10.492188 -10.484375 9.828125 C -11.152344 9.160156 -11.5625 8.242188 -11.5625 7.222656 C -11.5625 6.207031 -11.152344 5.289062 -10.484375 4.621094 C -9.820312 3.957031 -8.898438 3.542969 -7.882812 3.542969 C -7.179688 3.542969 -6.527344 3.734375 -5.976562 4.070312 C -5.402344 4.417969 -4.929688 4.917969 -4.617188 5.519531 L -3.109375 4.730469 C -3.566406 3.859375 -4.257812 3.125 -5.097656 2.617188 C -5.277344 2.511719 -5.460938 2.410156 -5.652344 2.324219 C -5.246094 1.183594 -4.523438 0.1875 -3.59375 -0.554688 C -2.667969 -1.292969 -1.53125 -1.78125 -0.289062 -1.914062 M 8.117188 1.871094 C 7.609375 0.375 6.683594 -0.925781 5.476562 -1.886719 C 4.277344 -2.84375 2.804688 -3.464844 1.199219 -3.621094 L 1.121094 -3.628906 L 1.113281 -3.628906 L 1.027344 -3.636719 L 0.945312 -3.640625 L 0.9375 -3.640625 L 0.855469 -3.648438 L 0.851562 -3.648438 L 0.769531 -3.652344 L 0.765625 -3.652344 L 0.679688 -3.65625 L 0.5 -3.65625 L 0.410156 -3.660156 L 0.324219 -3.65625 L 0.144531 -3.65625 L 0.0585938 -3.652344 L 0.0546875 -3.652344 L -0.0273438 -3.648438 L -0.0351562 -3.648438 L -0.117188 -3.640625 L -0.121094 -3.640625 L -0.203125 -3.636719 L -0.289062 -3.628906 L -0.296875 -3.628906 L -0.375 -3.621094 C -1.984375 -3.464844 -3.453125 -2.84375 -4.652344 -1.886719 C -5.859375 -0.925781 -6.789062 0.375 -7.292969 1.871094 C -7.488281 1.851562 -7.683594 1.839844 -7.882812 1.839844 C -9.371094 1.839844 -10.714844 2.441406 -11.691406 3.417969 C -12.664062 4.390625 -13.269531 5.738281 -13.269531 7.222656 C -13.269531 8.710938 -12.664062 10.058594 -11.691406 11.03125 C -10.714844 12.007812 -9.371094 12.609375 -7.882812 12.609375 L 8.707031 12.609375 C 10.191406 12.609375 11.539062 12.007812 12.515625 11.03125 C 13.488281 10.058594 14.09375 8.710938 14.09375 7.222656 C 14.09375 5.738281 13.488281 4.390625 12.515625 3.417969 C 11.539062 2.441406 10.191406 1.839844 8.707031 1.839844 C 8.507812 1.839844 8.3125 1.851562 8.117188 1.871094 Z M 8.117188 1.871094 " fill-opacity="1" fill-rule="nonzero"/><g fill="#ffffff" fill-opacity="1"><g transform="translate(33.303852, 29.225923)"><g><path d="M 0.484375 -10.90625 L 3.828125 -10.90625 C 4.359375 -10.90625 4.769531 -10.78125 5.0625 -10.53125 C 5.351562 -10.289062 5.550781 -9.953125 5.65625 -9.515625 C 5.757812 -9.085938 5.8125 -8.535156 5.8125 -7.859375 C 5.8125 -7.234375 5.726562 -6.75 5.5625 -6.40625 C 5.40625 -6.0625 5.128906 -5.820312 4.734375 -5.6875 C 5.066406 -5.613281 5.304688 -5.445312 5.453125 -5.1875 C 5.597656 -4.925781 5.671875 -4.570312 5.671875 -4.125 L 5.640625 0 L 3.515625 0 L 3.515625 -4.265625 C 3.515625 -4.566406 3.453125 -4.757812 3.328125 -4.84375 C 3.210938 -4.925781 3 -4.96875 2.6875 -4.96875 L 2.6875 0 L 0.484375 0 Z M 3.21875 -6.859375 C 3.519531 -6.859375 3.671875 -7.191406 3.671875 -7.859375 C 3.671875 -8.140625 3.660156 -8.351562 3.640625 -8.5 C 3.617188 -8.644531 3.570312 -8.742188 3.5 -8.796875 C 3.4375 -8.847656 3.335938 -8.875 3.203125 -8.875 L 2.703125 -8.875 L 2.703125 -6.859375 Z M 3.21875 -6.859375 "/></g></g></g><g fill="#ffffff" fill-opacity="1"><g transform="translate(39.35332, 29.225923)"><g><path d="M 3.078125 0.09375 C 2.078125 0.09375 1.359375 -0.148438 0.921875 -0.640625 C 0.484375 -1.128906 0.265625 -1.914062 0.265625 -3 L 0.265625 -4.078125 L 2.40625 -4.078125 L 2.40625 -2.71875 C 2.40625 -2.175781 2.582031 -1.90625 2.9375 -1.90625 C 3.125 -1.90625 3.253906 -1.960938 3.328125 -2.078125 C 3.410156 -2.191406 3.453125 -2.382812 3.453125 -2.65625 C 3.453125 -3.007812 3.410156 -3.300781 3.328125 -3.53125 C 3.242188 -3.757812 3.132812 -3.953125 3 -4.109375 C 2.863281 -4.273438 2.628906 -4.519531 2.296875 -4.84375 L 1.359375 -5.78125 C 0.628906 -6.488281 0.265625 -7.273438 0.265625 -8.140625 C 0.265625 -9.078125 0.476562 -9.785156 0.90625 -10.265625 C 1.332031 -10.753906 1.957031 -11 2.78125 -11 C 3.757812 -11 4.460938 -10.738281 4.890625 -10.21875 C 5.328125 -9.695312 5.546875 -8.882812 5.546875 -7.78125 L 3.328125 -7.78125 L 3.3125 -8.53125 C 3.3125 -8.664062 3.269531 -8.773438 3.1875 -8.859375 C 3.113281 -8.953125 3.003906 -9 2.859375 -9 C 2.679688 -9 2.550781 -8.953125 2.46875 -8.859375 C 2.382812 -8.765625 2.34375 -8.632812 2.34375 -8.46875 C 2.34375 -8.113281 2.546875 -7.75 2.953125 -7.375 L 4.21875 -6.15625 C 4.519531 -5.863281 4.765625 -5.585938 4.953125 -5.328125 C 5.148438 -5.078125 5.304688 -4.773438 5.421875 -4.421875 C 5.546875 -4.066406 5.609375 -3.648438 5.609375 -3.171875 C 5.609375 -2.097656 5.410156 -1.285156 5.015625 -0.734375 C 4.617188 -0.179688 3.972656 0.09375 3.078125 0.09375 Z M 3.078125 0.09375 "/></g></g></g><g fill="#ffffff" fill-opacity="1"><g transform="translate(45.199871, 29.225923)"><g><path d="M 0.484375 0 L 0.484375 -10.90625 L 2.734375 -10.90625 L 3.734375 -5.6875 L 3.734375 -10.90625 L 5.84375 -10.90625 L 5.84375 0 L 3.703125 0 L 2.609375 -5.453125 L 2.609375 0 Z M 0.484375 0 "/></g></g></g><g fill="#ffffff" fill-opacity="1"><g transform="translate(51.515672, 29.225923)"><g><path d="M 0.1875 0 L 1.25 -10.90625 L 4.9375 -10.90625 L 5.96875 0 L 3.90625 0 L 3.75 -1.765625 L 2.4375 -1.765625 L 2.3125 0 Z M 2.59375 -3.5 L 3.59375 -3.5 L 3.109375 -9.046875 L 3 -9.046875 Z M 2.59375 -3.5 "/></g></g></g><g fill="#ffffff" fill-opacity="1"><g transform="translate(57.666606, 29.225923)"><g/></g></g><g fill="#ffffff" fill-opacity="1"><g transform="translate(60.634266, 29.225923)"><g><path d="M 3.015625 0.09375 C 2.222656 0.09375 1.585938 -0.148438 1.109375 -0.640625 C 0.628906 -1.140625 0.390625 -1.828125 0.390625 -2.703125 L 0.390625 -7.734375 C 0.390625 -8.804688 0.601562 -9.617188 1.03125 -10.171875 C 1.46875 -10.722656 2.148438 -11 3.078125 -11 C 3.878906 -11 4.523438 -10.78125 5.015625 -10.34375 C 5.503906 -9.90625 5.75 -9.269531 5.75 -8.4375 L 5.75 -6.5625 L 3.578125 -6.5625 L 3.578125 -8.171875 C 3.578125 -8.484375 3.535156 -8.695312 3.453125 -8.8125 C 3.378906 -8.9375 3.253906 -9 3.078125 -9 C 2.878906 -9 2.742188 -8.929688 2.671875 -8.796875 C 2.597656 -8.660156 2.5625 -8.460938 2.5625 -8.203125 L 2.5625 -2.734375 C 2.5625 -2.441406 2.601562 -2.226562 2.6875 -2.09375 C 2.769531 -1.96875 2.898438 -1.90625 3.078125 -1.90625 C 3.410156 -1.90625 3.578125 -2.179688 3.578125 -2.734375 L 3.578125 -4.6875 L 5.765625 -4.6875 L 5.765625 -2.640625 C 5.765625 -0.816406 4.847656 0.09375 3.015625 0.09375 Z M 3.015625 0.09375 "/></g></g></g><g fill="#ffffff" fill-opacity="1"><g transform="translate(66.645684, 29.225923)"><g><path d="M 0.484375 0 L 0.484375 -10.90625 L 2.671875 -10.90625 L 2.671875 -1.859375 L 4.90625 -1.859375 L 4.90625 0 Z M 0.484375 0 "/></g></g></g><g fill="#ffffff" fill-opacity="1"><g transform="translate(71.680566, 29.225923)"><g><path d="M 3.078125 0.09375 C 2.203125 0.09375 1.535156 -0.171875 1.078125 -0.703125 C 0.617188 -1.242188 0.390625 -2 0.390625 -2.96875 L 0.390625 -8.15625 C 0.390625 -9.09375 0.617188 -9.800781 1.078125 -10.28125 C 1.535156 -10.757812 2.203125 -11 3.078125 -11 C 3.960938 -11 4.628906 -10.757812 5.078125 -10.28125 C 5.535156 -9.800781 5.765625 -9.09375 5.765625 -8.15625 L 5.765625 -2.96875 C 5.765625 -1.988281 5.535156 -1.234375 5.078125 -0.703125 C 4.628906 -0.171875 3.960938 0.09375 3.078125 0.09375 Z M 3.078125 -1.90625 C 3.273438 -1.90625 3.40625 -1.988281 3.46875 -2.15625 C 3.539062 -2.320312 3.578125 -2.5625 3.578125 -2.875 L 3.578125 -8.203125 C 3.578125 -8.429688 3.546875 -8.617188 3.484375 -8.765625 C 3.421875 -8.921875 3.289062 -9 3.09375 -9 C 2.726562 -9 2.546875 -8.722656 2.546875 -8.171875 L 2.546875 -2.859375 C 2.546875 -2.546875 2.582031 -2.304688 2.65625 -2.140625 C 2.738281 -1.984375 2.878906 -1.90625 3.078125 -1.90625 Z M 3.078125 -1.90625 "/></g></g></g><g fill="#ffffff" fill-opacity="1"><g transform="translate(77.844183, 29.225923)"><g><path d="M 3 0.09375 C 2.101562 0.09375 1.4375 -0.15625 1 -0.65625 C 0.570312 -1.164062 0.359375 -1.921875 0.359375 -2.921875 L 0.359375 -10.90625 L 2.46875 -10.90625 L 2.46875 -3 C 2.46875 -2.65625 2.5 -2.382812 2.5625 -2.1875 C 2.632812 -2 2.78125 -1.90625 3 -1.90625 C 3.226562 -1.90625 3.375 -2 3.4375 -2.1875 C 3.507812 -2.375 3.546875 -2.644531 3.546875 -3 L 3.546875 -10.90625 L 5.65625 -10.90625 L 5.65625 -2.921875 C 5.65625 -1.921875 5.4375 -1.164062 5 -0.65625 C 4.570312 -0.15625 3.90625 0.09375 3 0.09375 Z M 3 0.09375 "/></g></g></g><g fill="#ffffff" fill-opacity="1"><g transform="translate(83.855601, 29.225923)"><g><path d="M 0.484375 -10.90625 L 3.484375 -10.90625 C 4.265625 -10.90625 4.847656 -10.6875 5.234375 -10.25 C 5.628906 -9.820312 5.832031 -9.179688 5.84375 -8.328125 L 5.859375 -3.234375 C 5.867188 -2.160156 5.679688 -1.351562 5.296875 -0.8125 C 4.921875 -0.269531 4.289062 0 3.40625 0 L 0.484375 0 Z M 3.0625 -1.921875 C 3.457031 -1.921875 3.65625 -2.117188 3.65625 -2.515625 L 3.65625 -8.125 C 3.65625 -8.375 3.632812 -8.5625 3.59375 -8.6875 C 3.5625 -8.8125 3.492188 -8.894531 3.390625 -8.9375 C 3.285156 -8.976562 3.128906 -9 2.921875 -9 L 2.671875 -9 L 2.671875 -1.921875 Z M 3.0625 -1.921875 "/></g></g></g><g fill="#ffffff" fill-opacity="1"><g transform="translate(90.107987, 29.225923)"><g/></g></g><g fill="#ffffff" fill-opacity="1"><g transform="translate(93.075647, 29.225923)"><g><path d="M 3.015625 0.09375 C 2.222656 0.09375 1.585938 -0.148438 1.109375 -0.640625 C 0.628906 -1.140625 0.390625 -1.828125 0.390625 -2.703125 L 0.390625 -7.734375 C 0.390625 -8.804688 0.601562 -9.617188 1.03125 -10.171875 C 1.46875 -10.722656 2.148438 -11 3.078125 -11 C 3.878906 -11 4.523438 -10.78125 5.015625 -10.34375 C 5.503906 -9.90625 5.75 -9.269531 5.75 -8.4375 L 5.75 -6.5625 L 3.578125 -6.5625 L 3.578125 -8.171875 C 3.578125 -8.484375 3.535156 -8.695312 3.453125 -8.8125 C 3.378906 -8.9375 3.253906 -9 3.078125 -9 C 2.878906 -9 2.742188 -8.929688 2.671875 -8.796875 C 2.597656 -8.660156 2.5625 -8.460938 2.5625 -8.203125 L 2.5625 -2.734375 C 2.5625 -2.441406 2.601562 -2.226562 2.6875 -2.09375 C 2.769531 -1.96875 2.898438 -1.90625 3.078125 -1.90625 C 3.410156 -1.90625 3.578125 -2.179688 3.578125 -2.734375 L 3.578125 -4.6875 L 5.765625 -4.6875 L 5.765625 -2.640625 C 5.765625 -0.816406 4.847656 0.09375 3.015625 0.09375 Z M 3.015625 0.09375 "/></g></g></g><g fill="#ffffff" fill-opacity="1"><g transform="translate(99.087065, 29.225923)"><g><path d="M 3.078125 0.09375 C 2.203125 0.09375 1.535156 -0.171875 1.078125 -0.703125 C 0.617188 -1.242188 0.390625 -2 0.390625 -2.96875 L 0.390625 -8.15625 C 0.390625 -9.09375 0.617188 -9.800781 1.078125 -10.28125 C 1.535156 -10.757812 2.203125 -11 3.078125 -11 C 3.960938 -11 4.628906 -10.757812 5.078125 -10.28125 C 5.535156 -9.800781 5.765625 -9.09375 5.765625 -8.15625 L 5.765625 -2.96875 C 5.765625 -1.988281 5.535156 -1.234375 5.078125 -0.703125 C 4.628906 -0.171875 3.960938 0.09375 3.078125 0.09375 Z M 3.078125 -1.90625 C 3.273438 -1.90625 3.40625 -1.988281 3.46875 -2.15625 C 3.539062 -2.320312 3.578125 -2.5625 3.578125 -2.875 L 3.578125 -8.203125 C 3.578125 -8.429688 3.546875 -8.617188 3.484375 -8.765625 C 3.421875 -8.921875 3.289062 -9 3.09375 -9 C 2.726562 -9 2.546875 -8.722656 2.546875 -8.171875 L 2.546875 -2.859375 C 2.546875 -2.546875 2.582031 -2.304688 2.65625 -2.140625 C 2.738281 -1.984375 2.878906 -1.90625 3.078125 -1.90625 Z M 3.078125 -1.90625 "/></g></g></g><g fill="#ffffff" fill-opacity="1"><g transform="translate(105.250682, 29.225923)"><g><path d="M 0.484375 0 L 0.484375 -10.90625 L 2.734375 -10.90625 L 3.734375 -5.6875 L 3.734375 -10.90625 L 5.84375 -10.90625 L 5.84375 0 L 3.703125 0 L 2.609375 -5.453125 L 2.609375 0 Z M 0.484375 0 "/></g></g></g><g fill="#ffffff" fill-opacity="1"><g transform="translate(111.566483, 29.225923)"><g><path d="M 0.484375 0 L 0.484375 -10.90625 L 2.734375 -10.90625 L 3.734375 -5.6875 L 3.734375 -10.90625 L 5.84375 -10.90625 L 5.84375 0 L 3.703125 0 L 2.609375 -5.453125 L 2.609375 0 Z M 0.484375 0 "/></g></g></g><g fill="#ffffff" fill-opacity="1"><g transform="translate(117.882285, 29.225923)"><g><path d="M 0.484375 0 L 0.484375 -10.90625 L 4.84375 -10.90625 L 4.84375 -8.796875 L 2.703125 -8.796875 L 2.703125 -6.671875 L 4.75 -6.671875 L 4.75 -4.625 L 2.703125 -4.625 L 2.703125 -2.125 L 4.984375 -2.125 L 4.984375 0 Z M 0.484375 0 "/></g></g></g><g fill="#ffffff" fill-opacity="1"><g transform="translate(123.107401, 29.225923)"><g><path d="M 3.015625 0.09375 C 2.222656 0.09375 1.585938 -0.148438 1.109375 -0.640625 C 0.628906 -1.140625 0.390625 -1.828125 0.390625 -2.703125 L 0.390625 -7.734375 C 0.390625 -8.804688 0.601562 -9.617188 1.03125 -10.171875 C 1.46875 -10.722656 2.148438 -11 3.078125 -11 C 3.878906 -11 4.523438 -10.78125 5.015625 -10.34375 C 5.503906 -9.90625 5.75 -9.269531 5.75 -8.4375 L 5.75 -6.5625 L 3.578125 -6.5625 L 3.578125 -8.171875 C 3.578125 -8.484375 3.535156 -8.695312 3.453125 -8.8125 C 3.378906 -8.9375 3.253906 -9 3.078125 -9 C 2.878906 -9 2.742188 -8.929688 2.671875 -8.796875 C 2.597656 -8.660156 2.5625 -8.460938 2.5625 -8.203125 L 2.5625 -2.734375 C 2.5625 -2.441406 2.601562 -2.226562 2.6875 -2.09375 C 2.769531 -1.96875 2.898438 -1.90625 3.078125 -1.90625 C 3.410156 -1.90625 3.578125 -2.179688 3.578125 -2.734375 L 3.578125 -4.6875 L 5.765625 -4.6875 L 5.765625 -2.640625 C 5.765625 -0.816406 4.847656 0.09375 3.015625 0.09375 Z M 3.015625 0.09375 "/></g></g></g><g fill="#ffffff" fill-opacity="1"><g transform="translate(129.118819, 29.225923)"><g><path d="M 1.421875 0 L 1.421875 -8.8125 L 0.125 -8.8125 L 0.125 -10.90625 L 4.890625 -10.90625 L 4.890625 -8.8125 L 3.609375 -8.8125 L 3.609375 0 Z M 1.421875 0 "/></g></g></g></svg>